<svg id="svg" version="1.1" xmlns="http://www.w3.org/2000/svg" xmlns:xlink="http://www.w3.org/1999/xlink" width="400" height="400" viewBox="0, 0, 400,400"><g id="svgg"><path id="path0" d="M149.200 12.200 L 149.200 24.400 124.200 24.400 L 99.200 24.400 99.200 36.800 L 99.200 49.200 74.200 49.200 L 49.200 49.200 49.200 61.800 L 49.200 74.400 36.800 74.400 L 24.400 74.400 24.400 112.600 L 24.400 150.800 36.800 150.800 L 49.200 150.800 49.200 175.800 L 49.200 200.800 61.800 200.800 L 74.400 200.800 74.400 212.600 L 74.400 224.400 61.800 224.400 L 49.200 224.400 49.200 236.800 L 49.200 249.200 36.800 249.200 L 24.400 249.200 24.400 300.000 L 24.400 350.800 36.800 350.800 L 49.200 350.800 49.200 363.200 L 49.200 375.600 99.200 375.600 L 149.200 375.600 149.200 387.800 L 149.200 400.000 200.000 400.000 L 250.800 400.000 250.800 387.800 L 250.800 375.600 300.800 375.600 L 350.800 375.600 350.800 363.200 L 350.800 350.800 363.200 350.800 L 375.600 350.800 375.600 300.000 L 375.600 249.200 363.200 249.200 L 350.800 249.200 350.800 236.800 L 350.800 224.400 338.200 224.400 L 325.600 224.400 325.600 212.600 L 325.600 200.800 338.200 200.800 L 350.800 200.800 350.800 188.200 L 350.800 175.600 363.200 175.600 L 375.600 175.600 375.600 137.400 L 375.600 99.200 363.200 99.200 L 350.800 99.200 350.800 86.800 L 350.800 74.400 325.800 74.400 L 300.800 74.400 300.800 61.800 L 300.800 49.200 288.200 49.200 L 275.600 49.200 275.600 36.800 L 275.600 24.400 263.200 24.400 L 250.800 24.400 250.800 12.200 L 250.800 0.000 200.000 0.000 L 149.200 0.000 149.200 12.200 M225.120 24.880 C 225.472 25.232,225.600 28.585,225.600 37.474 L 225.600 49.588 237.900 49.694 L 250.200 49.800 250.301 137.097 L 250.402 224.394 275.301 224.497 L 300.200 224.600 300.200 237.400 L 300.200 250.200 287.900 250.306 L 275.600 250.412 275.600 262.526 C 275.600 271.415,275.472 274.768,275.120 275.120 C 274.757 275.483,268.658 275.600,250.120 275.600 L 225.600 275.600 225.600 299.994 L 225.600 324.388 237.900 324.494 L 250.200 324.600 250.200 337.400 L 250.200 350.200 237.900 350.306 L 225.600 350.412 225.600 362.526 C 225.600 371.415,225.472 374.768,225.120 375.120 C 224.427 375.813,175.573 375.813,174.880 375.120 C 174.528 374.768,174.400 371.415,174.400 362.526 L 174.400 350.412 162.100 350.306 L 149.800 350.200 149.694 337.627 C 149.612 327.835,149.700 324.983,150.094 324.733 C 150.372 324.557,155.955 324.409,162.500 324.406 L 174.400 324.400 174.400 300.000 L 174.400 275.600 149.880 275.600 C 131.342 275.600,125.243 275.483,124.880 275.120 C 124.528 274.768,124.400 271.415,124.400 262.526 L 124.400 250.412 112.100 250.306 L 99.800 250.200 99.694 237.627 C 99.612 227.835,99.700 224.983,100.094 224.733 C 100.372 224.557,111.625 224.409,125.099 224.406 L 149.598 224.400 149.699 137.100 L 149.800 49.800 162.100 49.694 L 174.400 49.588 174.400 37.474 C 174.400 28.585,174.528 25.232,174.880 24.880 C 175.573 24.187,224.427 24.187,225.120 24.880 M99.906 86.966 C 99.976 94.900,100.160 99.111,100.450 99.461 C 100.792 99.872,103.550 100.012,112.944 100.094 L 125.000 100.200 125.000 125.000 L 125.000 149.800 100.000 149.800 L 75.000 149.800 74.800 137.600 L 74.600 125.400 62.400 125.200 L 50.200 125.000 50.200 112.600 L 50.200 100.200 62.400 100.000 L 74.600 99.800 74.706 87.834 C 74.778 79.741,74.957 75.693,75.260 75.328 C 75.621 74.893,78.036 74.809,87.754 74.894 L 99.800 75.000 99.906 86.966 M350.296 107.800 C 350.348 112.200,350.258 123.450,350.096 132.800 L 349.800 149.800 337.600 150.000 L 325.400 150.200 325.294 162.256 C 325.211 171.777,325.075 174.406,324.649 174.759 C 324.262 175.080,317.205 175.177,299.555 175.103 L 275.000 175.000 274.897 150.445 C 274.823 132.795,274.920 125.738,275.241 125.351 C 275.594 124.925,278.223 124.789,287.744 124.706 L 299.800 124.600 300.000 112.400 L 300.200 100.200 312.400 99.988 C 319.110 99.872,330.360 99.782,337.400 99.788 L 350.200 99.800 350.296 107.800 M300.272 125.461 C 299.698 126.036,299.962 149.070,300.548 149.557 C 300.937 149.880,304.511 149.981,312.848 149.906 L 324.600 149.800 324.600 137.600 L 324.600 125.400 312.572 125.294 C 305.957 125.236,300.422 125.311,300.272 125.461 M99.200 187.400 L 99.200 199.200 87.400 199.200 L 75.600 199.200 75.600 187.400 L 75.600 175.600 87.400 175.600 L 99.200 175.600 99.200 187.400 M100.400 287.000 L 100.600 299.400 113.000 299.600 L 125.400 299.800 125.503 324.321 C 125.572 340.768,125.469 349.098,125.189 349.621 C 124.780 350.385,124.032 350.400,87.186 350.400 L 49.600 350.400 49.600 337.814 C 49.600 325.780,49.634 325.210,50.374 324.814 C 50.856 324.556,55.524 324.400,62.774 324.400 L 74.400 324.400 74.400 312.406 L 74.400 300.412 62.100 300.306 L 49.800 300.200 49.694 287.800 C 49.597 276.469,49.647 275.357,50.274 274.897 C 50.812 274.503,56.305 274.416,75.581 274.497 L 100.200 274.600 100.400 287.000 M325.200 287.200 L 325.400 299.400 337.456 299.506 C 347.564 299.595,349.592 299.708,350.007 300.208 C 350.397 300.679,350.428 305.998,350.151 325.303 L 349.800 349.800 334.800 350.083 C 306.974 350.608,275.228 350.056,274.983 349.044 C 274.871 348.580,274.829 337.310,274.890 324.000 L 275.000 299.800 287.300 299.694 L 299.600 299.588 299.600 287.461 C 299.600 280.791,299.723 275.211,299.872 275.061 C 300.022 274.911,305.737 274.836,312.572 274.894 L 325.000 275.000 325.200 287.200 " stroke="none" fill="#fcfcfc" fill-rule="evenodd"></path><path id="path1" d="M175.600 37.600 L 175.600 49.600 200.000 49.600 L 224.400 49.600 224.400 37.600 L 224.400 25.600 200.000 25.600 L 175.600 25.600 175.600 37.600 M225.387 50.894 C 225.281 51.172,225.241 90.370,225.297 138.000 L 225.400 224.600 237.400 224.600 L 249.400 224.600 249.400 137.600 L 249.400 50.600 237.490 50.494 C 228.177 50.411,225.538 50.498,225.387 50.894 M150.800 137.600 L 150.800 224.400 162.600 224.400 L 174.400 224.400 174.400 137.600 L 174.400 50.800 162.600 50.800 L 150.800 50.800 150.800 137.600 M187.900 225.497 L 175.600 225.612 175.600 237.606 L 175.600 249.600 200.206 249.600 L 224.812 249.600 224.706 237.500 L 224.600 225.400 212.400 225.391 C 205.690 225.386,194.665 225.434,187.900 225.497 M100.800 237.394 L 100.800 249.188 113.100 249.294 L 125.400 249.400 125.506 261.900 L 125.611 274.400 150.006 274.400 L 174.400 274.400 174.400 262.400 L 174.400 250.400 162.000 250.400 L 149.600 250.400 149.600 238.000 L 149.600 225.600 125.200 225.600 L 100.800 225.600 100.800 237.394 M250.400 237.371 C 250.400 247.539,250.314 249.228,249.771 249.771 C 249.228 250.315,247.521 250.400,237.171 250.400 L 225.200 250.400 225.200 262.400 L 225.200 274.400 249.794 274.400 L 274.388 274.400 274.494 262.100 L 274.600 249.800 287.000 249.600 L 299.400 249.400 299.506 237.500 L 299.612 225.600 275.006 225.600 L 250.400 225.600 250.400 237.371 M150.800 337.400 L 150.800 349.200 162.600 349.200 L 174.400 349.200 174.400 337.400 L 174.400 325.600 162.600 325.600 L 150.800 325.600 150.800 337.400 M225.294 337.500 L 225.400 349.400 237.400 349.400 L 249.400 349.400 249.506 337.500 L 249.612 325.600 237.400 325.600 L 225.188 325.600 225.294 337.500 M175.600 362.400 L 175.600 374.400 200.000 374.400 L 224.400 374.400 224.400 362.400 L 224.400 350.400 200.000 350.400 L 175.600 350.400 175.600 362.400 " stroke="none" fill="#303030" fill-rule="evenodd"></path><path id="path2" d="M175.070 25.064 C 174.921 25.212,174.800 30.793,174.800 37.467 L 174.800 49.600 162.829 49.600 C 152.479 49.600,150.772 49.685,150.229 50.229 C 149.661 50.796,149.600 59.297,149.600 137.829 L 149.600 224.800 125.080 224.800 C 106.542 224.800,100.443 224.917,100.080 225.280 C 99.270 226.090,99.408 248.951,100.229 249.771 C 100.772 250.315,102.478 250.400,112.823 250.400 L 124.788 250.400 124.894 262.700 L 125.000 275.000 149.800 275.200 L 174.600 275.400 174.600 300.000 L 174.600 324.600 162.634 324.706 C 154.620 324.777,150.491 324.958,150.134 325.255 C 149.273 325.969,149.362 348.905,150.229 349.771 C 150.772 350.315,152.478 350.400,162.823 350.400 L 174.788 350.400 174.894 362.700 L 175.000 375.000 200.000 375.000 L 225.000 375.000 225.106 362.700 L 225.212 350.400 237.326 350.400 C 246.215 350.400,249.568 350.272,249.920 349.920 C 250.652 349.188,250.602 325.865,249.866 325.255 C 249.509 324.958,245.380 324.777,237.366 324.706 L 225.400 324.600 225.400 300.000 L 225.400 275.400 250.200 275.200 L 275.000 275.000 275.200 262.800 L 275.400 250.600 287.366 250.494 C 295.380 250.423,299.509 250.242,299.866 249.945 C 300.602 249.335,300.652 226.012,299.920 225.280 C 299.557 224.917,293.458 224.800,274.920 224.800 L 250.400 224.800 250.400 137.680 C 250.400 70.453,250.290 50.450,249.920 50.080 C 249.568 49.728,246.215 49.600,237.326 49.600 L 225.212 49.600 225.106 37.300 L 225.000 25.000 200.170 24.897 C 186.513 24.840,175.218 24.915,175.070 25.064 M224.400 37.800 L 224.400 50.000 200.000 50.000 L 175.600 50.000 175.600 37.800 L 175.600 25.600 200.000 25.600 L 224.400 25.600 224.400 37.800 M174.800 118.934 C 174.800 156.628,174.919 195.870,175.065 206.137 L 175.331 224.806 199.965 224.703 L 224.600 224.600 224.800 137.600 L 225.000 50.600 237.300 50.494 L 249.600 50.388 249.600 137.788 L 249.600 225.188 237.500 225.294 L 225.400 225.400 225.294 237.500 L 225.188 249.600 237.394 249.600 L 249.600 249.600 249.600 237.608 L 249.600 225.615 250.500 225.397 C 250.995 225.277,262.200 225.229,275.400 225.290 L 299.400 225.400 299.506 237.494 L 299.612 249.588 287.306 249.694 L 275.000 249.800 274.800 262.200 L 274.600 274.600 249.800 274.600 L 225.000 274.600 224.894 262.565 L 224.788 250.530 206.729 250.265 C 196.796 250.119,185.638 250.000,181.934 250.000 L 175.200 250.000 175.200 237.400 L 175.200 224.800 162.800 224.800 L 150.400 224.800 150.400 137.867 C 150.400 90.053,150.520 50.813,150.667 50.667 C 150.813 50.520,156.303 50.400,162.867 50.400 L 174.800 50.400 174.800 118.934 M79.600 75.083 C 90.099 75.365,99.908 75.374,99.739 75.100 C 99.636 74.935,94.118 74.838,87.476 74.885 C 80.834 74.932,77.290 75.021,79.600 75.083 M74.977 87.400 C 74.977 94.000,75.032 96.756,75.099 93.525 C 75.166 90.293,75.166 84.893,75.099 81.525 C 75.032 78.156,74.977 80.800,74.977 87.400 M124.600 125.000 C 124.600 138.708,124.735 149.840,124.900 149.738 C 125.065 149.636,125.200 138.504,125.200 125.000 C 125.200 111.496,125.065 100.364,124.900 100.262 C 124.735 100.160,124.600 111.292,124.600 125.000 M50.333 124.894 C 50.495 125.056,56.022 125.236,62.614 125.294 L 74.600 125.400 74.706 137.386 C 74.764 143.978,74.944 149.505,75.106 149.667 C 75.592 150.153,75.236 125.925,74.749 125.338 C 74.420 124.943,71.492 124.796,62.180 124.711 C 55.502 124.650,50.172 124.732,50.333 124.894 M150.094 237.700 L 150.200 249.800 162.500 249.906 L 174.800 250.012 174.800 262.206 L 174.800 274.400 150.200 274.400 L 125.600 274.400 125.600 262.449 C 125.600 252.974,125.489 250.406,125.066 250.055 C 124.709 249.758,120.580 249.577,112.566 249.506 L 100.600 249.400 100.494 237.500 L 100.388 225.600 125.188 225.600 L 149.988 225.600 150.094 237.700 M224.703 299.900 L 224.600 325.000 200.000 325.000 L 175.400 325.000 175.296 300.400 C 175.239 286.870,175.279 275.575,175.384 275.300 C 175.534 274.907,180.867 274.800,200.190 274.800 L 224.806 274.800 224.703 299.900 M300.506 275.126 C 300.136 275.361,299.985 278.487,299.906 287.620 L 299.800 299.800 287.506 299.906 L 275.212 300.012 274.960 301.018 C 274.821 301.572,274.863 312.774,275.054 325.912 L 275.400 349.800 312.156 349.902 C 339.103 349.977,349.059 349.883,349.460 349.551 C 349.913 349.174,349.989 344.924,349.903 324.648 L 349.800 300.200 337.600 300.000 L 325.400 299.800 325.294 287.834 C 325.223 279.820,325.042 275.691,324.745 275.334 C 324.246 274.733,301.433 274.537,300.506 275.126 M324.400 287.226 C 324.400 294.476,324.556 299.144,324.814 299.626 C 325.210 300.365,325.776 300.400,337.417 300.400 L 349.606 300.400 349.503 324.900 L 349.400 349.400 312.500 349.502 L 275.600 349.604 275.600 325.008 L 275.600 300.412 287.900 300.306 L 300.200 300.200 300.306 287.900 L 300.412 275.600 312.406 275.600 L 324.400 275.600 324.400 287.226 M249.506 337.500 L 249.612 349.600 237.206 349.600 L 224.800 349.600 224.800 337.667 C 224.800 331.103,224.923 325.611,225.072 325.461 C 225.222 325.311,230.757 325.236,237.372 325.294 L 249.400 325.400 249.506 337.500 M174.800 337.606 L 174.800 349.612 162.700 349.506 L 150.600 349.400 150.494 337.500 L 150.388 325.600 162.594 325.600 L 174.800 325.600 174.800 337.606 M224.604 350.500 C 224.725 350.995,224.774 356.620,224.712 363.000 L 224.600 374.600 200.000 374.600 L 175.400 374.600 175.400 362.400 L 175.400 350.200 188.000 349.991 C 194.930 349.877,205.952 349.742,212.492 349.691 L 224.385 349.600 224.604 350.500 " stroke="none" fill="#939393" fill-rule="evenodd"></path><path id="path3" d="M75.467 75.467 C 75.320 75.613,75.200 81.067,75.200 87.587 C 75.200 96.273,75.072 99.568,74.720 99.920 C 74.368 100.272,71.058 100.400,62.320 100.400 L 50.400 100.400 50.400 112.594 L 50.400 124.788 62.700 124.894 L 75.000 125.000 75.106 137.300 L 75.212 149.600 100.006 149.600 L 124.800 149.600 124.800 125.000 L 124.800 100.400 112.829 100.400 C 102.479 100.400,100.772 100.315,100.229 99.771 C 99.685 99.228,99.600 97.521,99.600 87.171 L 99.600 75.200 87.667 75.200 C 81.103 75.200,75.613 75.320,75.467 75.467 " stroke="none" fill="#ff7700" fill-rule="evenodd"></path><path id="path4" d="M312.500 100.300 L 300.400 100.412 300.400 112.606 L 300.400 124.800 312.320 124.800 C 321.058 124.800,324.368 124.928,324.720 125.280 C 325.072 125.632,325.200 128.942,325.200 137.680 L 325.200 149.600 337.335 149.600 L 349.470 149.600 349.735 131.534 C 349.881 121.598,350.000 110.438,350.000 106.734 L 350.000 100.000 337.300 100.094 C 330.315 100.146,319.155 100.238,312.500 100.300 M275.468 125.500 C 274.847 126.541,274.736 174.249,275.353 174.761 C 275.893 175.209,280.117 175.241,300.302 174.950 L 324.600 174.600 324.706 162.500 L 324.812 150.400 312.868 150.400 C 301.805 150.400,300.875 150.346,300.262 149.669 C 299.677 149.022,299.600 147.551,299.600 137.069 L 299.600 125.200 287.624 125.200 C 281.037 125.200,275.567 125.335,275.468 125.500 " stroke="none" fill="#8feaea" fill-rule="evenodd"></path><path id="path5" d="M63.200 275.191 L 50.600 275.400 50.494 287.500 L 50.388 299.600 62.345 299.600 C 71.983 299.600,74.390 299.706,74.757 300.148 C 75.080 300.538,75.181 304.215,75.106 312.848 L 75.000 325.000 62.800 325.200 L 50.600 325.400 50.494 337.445 L 50.388 349.490 72.694 349.730 C 84.962 349.861,101.660 349.841,109.800 349.685 L 124.600 349.400 124.946 325.709 C 125.136 312.678,125.178 301.566,125.039 301.014 L 124.788 300.012 112.494 299.906 L 100.200 299.800 100.094 287.620 C 100.015 278.487,99.864 275.361,99.494 275.126 C 98.984 274.802,85.203 274.827,63.200 275.191 " stroke="none" fill="#7c7cff" fill-rule="evenodd"></path><path id="path6" d="M99.777 87.400 C 99.777 94.000,99.832 96.756,99.899 93.525 C 99.966 90.293,99.966 84.893,99.899 81.525 C 99.832 78.156,99.777 80.800,99.777 87.400 M50.181 100.505 C 50.075 100.782,50.038 106.317,50.100 112.805 L 50.213 124.600 50.306 112.506 L 50.400 100.412 62.500 100.300 L 74.600 100.188 62.487 100.094 C 53.038 100.021,50.332 100.111,50.181 100.505 M106.725 100.299 C 110.093 100.366,115.493 100.366,118.725 100.299 C 121.956 100.232,119.200 100.177,112.600 100.177 C 106.000 100.177,103.356 100.232,106.725 100.299 M87.700 149.900 C 94.465 149.961,105.535 149.961,112.300 149.900 C 119.065 149.838,113.530 149.788,100.000 149.788 C 86.470 149.788,80.935 149.838,87.700 149.900 M175.384 275.300 C 175.279 275.575,175.239 286.870,175.296 300.400 L 175.400 325.000 200.000 325.000 L 224.600 325.000 224.605 299.900 L 224.609 274.800 224.502 299.800 L 224.394 324.800 199.997 324.800 L 175.600 324.800 175.600 300.200 L 175.600 275.600 187.300 275.560 C 193.735 275.538,199.450 275.376,200.000 275.200 C 200.550 275.024,195.282 274.862,188.287 274.840 C 178.456 274.809,175.532 274.913,175.384 275.300 M300.306 287.900 L 300.200 300.200 287.900 300.306 L 275.600 300.412 275.600 325.008 L 275.600 349.604 312.500 349.502 L 349.400 349.400 349.503 324.900 L 349.606 300.400 337.417 300.400 C 325.776 300.400,325.210 300.365,324.814 299.626 C 324.556 299.144,324.400 294.476,324.400 287.226 L 324.400 275.600 312.406 275.600 L 300.412 275.600 300.306 287.900 " stroke="none" fill="#ac7346" fill-rule="evenodd"></path><path id="path7" d="M187.700 49.900 C 194.465 49.961,205.535 49.961,212.300 49.900 C 219.065 49.838,213.530 49.788,200.000 49.788 C 186.470 49.788,180.935 49.838,187.700 49.900 M150.667 50.667 C 150.520 50.813,150.400 90.053,150.400 137.867 L 150.400 224.800 162.800 224.800 L 175.200 224.800 175.200 237.400 L 175.200 250.000 181.934 250.000 C 185.638 250.000,196.796 250.119,206.729 250.265 L 224.788 250.530 224.900 262.565 L 225.012 274.600 225.106 262.500 L 225.200 250.400 237.171 250.400 C 247.521 250.400,249.228 250.315,249.771 249.771 C 250.314 249.228,250.400 247.539,250.400 237.371 L 250.400 225.600 274.900 225.503 L 299.400 225.406 275.400 225.293 C 262.200 225.230,250.995 225.277,250.500 225.397 L 249.600 225.615 249.600 237.608 L 249.600 249.600 237.394 249.600 L 225.188 249.600 225.294 237.500 L 225.400 225.400 237.500 225.294 C 244.155 225.236,249.600 225.056,249.600 224.894 C 249.600 224.732,244.155 224.600,237.500 224.600 L 225.400 224.600 225.400 137.520 C 225.400 89.626,225.265 50.575,225.101 50.739 C 224.936 50.904,224.756 90.090,224.701 137.819 L 224.600 224.600 199.965 224.703 L 175.331 224.806 175.065 206.137 C 174.919 195.870,174.800 156.628,174.800 118.934 L 174.800 50.400 162.867 50.400 C 156.303 50.400,150.813 50.520,150.667 50.667 M174.400 137.600 L 174.400 224.400 162.600 224.400 L 150.800 224.400 150.800 137.600 L 150.800 50.800 162.600 50.800 L 174.400 50.800 174.400 137.600 M224.706 237.500 L 224.812 249.600 200.206 249.600 L 175.600 249.600 175.600 237.606 L 175.600 225.612 187.900 225.497 C 194.665 225.434,205.690 225.386,212.400 225.391 L 224.600 225.400 224.706 237.500 M100.591 237.400 L 100.600 249.400 112.566 249.506 C 121.337 249.584,124.693 249.744,125.131 250.106 C 125.620 250.509,125.694 250.490,125.532 250.000 C 125.362 249.487,123.553 249.385,113.073 249.294 L 100.812 249.188 100.697 237.294 L 100.582 225.400 100.591 237.400 M149.691 237.900 L 149.600 250.400 161.994 250.400 L 174.388 250.400 174.500 262.500 L 174.612 274.600 174.706 262.306 L 174.800 250.012 162.500 249.906 L 150.200 249.800 149.991 237.600 L 149.782 225.400 149.691 237.900 M274.667 249.867 C 274.520 250.013,274.400 255.592,274.400 262.264 L 274.400 274.394 250.100 274.502 L 225.800 274.609 250.200 274.605 L 274.600 274.600 274.800 262.100 C 274.910 255.225,274.985 249.600,274.967 249.600 C 274.948 249.600,274.813 249.720,274.667 249.867 M200.000 275.200 C 199.450 275.376,193.735 275.538,187.300 275.560 L 175.600 275.600 175.600 300.200 L 175.600 324.800 200.000 324.800 L 224.400 324.800 224.400 299.800 L 224.400 274.800 212.700 274.840 C 206.265 274.862,200.550 275.024,200.000 275.200 M231.525 325.499 C 234.893 325.566,240.293 325.566,243.525 325.499 C 246.756 325.432,244.000 325.377,237.400 325.377 C 230.800 325.377,228.156 325.432,231.525 325.499 M150.591 337.400 L 150.600 349.400 162.700 349.506 L 174.800 349.612 174.706 337.506 L 174.612 325.400 174.500 337.300 L 174.388 349.200 162.600 349.200 L 150.812 349.200 150.697 337.300 L 150.582 325.400 150.591 337.400 M224.885 337.500 C 224.838 344.155,224.935 349.600,225.100 349.600 C 225.265 349.601,225.354 346.046,225.298 341.700 C 225.105 326.788,224.970 325.416,224.885 337.500 M188.000 349.991 L 175.400 350.200 175.400 362.400 L 175.400 374.600 200.000 374.600 L 224.600 374.600 224.712 363.000 C 224.774 356.620,224.725 350.995,224.604 350.500 L 224.385 349.600 212.492 349.691 C 205.952 349.742,194.930 349.877,188.000 349.991 M224.400 362.400 L 224.400 374.400 200.000 374.400 L 175.600 374.400 175.600 362.400 L 175.600 350.400 200.000 350.400 L 224.400 350.400 224.400 362.400 " stroke="none" fill="#634122" fill-rule="evenodd"></path><path id="path8" d="" stroke="none" fill="#c8cc100" fill-rule="evenodd"></path></g></svg>